<?xml version="1.0" encoding="utf-8"?>
<!-- Generator: Adobe Illustrator 24.1.0, SVG Export Plug-In . SVG Version: 6.00 Build 0)  -->
<svg version="1.1" id="Layer_1" xmlns="http://www.w3.org/2000/svg" xmlns:xlink="http://www.w3.org/1999/xlink" x="0px" y="0px"
	 viewBox="0 0 1599 1599" style="enable-background:new 0 0 1599 1599;" xml:space="preserve">
<style type="text/css">
	.st0{fill:#FDEF8D;}
	.st1{fill:#FFFFFF;}
</style>
<g transform="translate(0.000000,1599.000000) scale(0.100000,-0.100000)">
	<path d="M7620,15884c-30-2-131-8-225-14c-811-52-1712-267-2490-595c-1448-610-2683-1634-3556-2950C610,11210,170,9926,58,8555
		c-17-213-17-986,0-1195c106-1287,479-2447,1133-3527c812-1340,2033-2430,3459-3086c846-390,1668-607,2665-704
		c259-25,1061-25,1320,0c1164,113,2149,407,3110,927c1921,1039,3329,2820,3895,4925c123,456,203,924,252,1475c20,226,17,1006-5,1235
		c-102,1039-326,1874-742,2755c-562,1189-1461,2266-2535,3037c-1179,845-2542,1348-3985,1469C8458,15880,7752,15893,7620,15884z"/>
	<path class="st0" d="M8325,15540c751-40,1452-174,2115-402c2240-773,3991-2542,4740-4788c515-1543,515-3239,1-4790
		c-587-1769-1828-3282-3446-4202c-940-534-1918-847-3001-958c-469-48-1065-48-1525,0c-1564,165-2946,755-4154,1771
		c-217,183-678,643-864,864C1211,4196,610,5573,435,7056c-42,361-50,509-49,914c0,409,12,595,59,963c274,2154,1480,4102,3297,5325
		c1092,735,2339,1166,3658,1267C7745,15551,8030,15555,8325,15540z"/>
	<path d="M6845,11959c-166-21-338-86-476-180c-82-55-214-187-266-264c-78-116-138-255-170-395c-10-42-17-146-20-297l-5-232l-80,56
		c-88,62-215,120-323,149c-101,27-390,27-490,0c-357-96-629-368-727-726l-23-85V8425V6865l23-145c115-728,413-1321,912-1820
		c481-481,1107-800,1767-900c232-35,401-43,810-37c399,5,533,15,773,57c988,175,1872,741,2457,1574c453,645,706,1476,680,2231
		c-13,354-116,655-321,940l-51,70l-5,1145l-5,1145l-23,73c-49,161-126,292-234,401c-391,395-1023,368-1382-59l-37-45l-32,40
		c-115,145-234,242-392,320c-235,115-484,140-742,74c-86-22-235-90-320-146c-71-47-201-170-249-235c-20-26-39-48-43-48s-22,21-41,46
		c-51,71-158,174-243,232c-144,99-312,161-490,181C6969,11971,6945,11971,6845,11959z"/>
	<path class="st1" d="M7145,11595c33-8,98-34,145-57c68-34,103-60,175-133c75-74,98-105,132-175c81-167,78-127,78-995v-770l-690-5
		c-379-3-698-9-707-14c-17-8-18,32-18,758c0,869-1,857,75,1011c79,161,178,258,340,336C6814,11618,6990,11634,7145,11595z"/>
	<path class="st1" d="M8866,11605c105-19,238-79,326-150c109-86,200-226,240-372c22-77,22-91,26-850l3-773h-721h-721l3,778
		c4,747,4,780,24,847c56,194,189,359,359,447C8565,11614,8693,11635,8866,11605z"/>
	<path class="st1" d="M10519,11515c198-47,365-209,428-415c15-49,17-150,20-998c2-519,0-942-4-940c-4,1-51,29-104,60
		c-259,154-515,223-871,235l-188,6v756c1,596,4,772,14,833c40,221,216,410,432,462C10324,11533,10440,11533,10519,11515z"/>
	<path class="st1" d="M5345,10470c218-31,402-163,496-355c72-147,70-126,67-857l-3-653l-27-73c-38-104-83-175-159-251
		s-147-122-251-159c-66-24-87-27-208-27s-142,3-208,27c-104,37-175,83-251,159s-121,147-159,251l-27,73v680v680l29,75
		c88,232,288,396,521,429C5248,10481,5265,10481,5345,10470z"/>
	<path class="st1" d="M10275,9082c555-128,960-553,1051-1101c14-86,16-144,11-325c-24-879-381-1702-1011-2331
		c-594-593-1337-936-2181-1006c-91-7-284-9-550-6c-456,5-548,14-820,81c-236,59-394,119-621,235c-782,402-1336,1146-1499,2011
		c-39,208-45,322-45,832c0,279,4,498,9,498s14-7,21-15c21-25,155-105,229-136c234-98,507-104,742-15c141,53,240,118,355,232l102,101
		l12-26c6-14,46-78,88-141c202-306,534-535,890-615c159-36,297-45,717-45h380l-81-75c-225-206-397-492-473-786
		c-45-175-52-249-52-586c0-254,3-317,14-340c59-112,217-127,293-27l29,37l6,326c7,347,14,412,65,567c117,360,392,656,738,794
		c136,55,257,81,412,89c113,6,148,11,175,27c64,37,99,115,85,189c-7,37-53,97-90,118c-16,9-267,13-1031,17l-1010,6l-100,26
		c-234,62-395,156-560,329c-134,140-218,286-269,467c-34,120-46,219-46,385c0,125,3,146,20,175c40,66-105,62,1990,59l1905-3
		L10275,9082z"/>
</g>
</svg>
