<?xml version="1.0" encoding="utf-8"?>
<!-- Generator: Adobe Illustrator 24.1.0, SVG Export Plug-In . SVG Version: 6.00 Build 0)  -->
<svg version="1.1" id="Layer_1" xmlns="http://www.w3.org/2000/svg" xmlns:xlink="http://www.w3.org/1999/xlink" x="0px" y="0px"
	 viewBox="0 0 1599 1599" style="enable-background:new 0 0 1599 1599;" xml:space="preserve">
<style type="text/css">
	.st0{fill:#C0FBF9;}
	.st1{fill:#FFFFFF;}
</style>
<g transform="translate(0.000000,1599.000000) scale(0.100000,-0.100000)">
	<path d="M7650,15939c-810-36-1584-186-2335-454c-1914-681-3522-2102-4430-3915c-461-921-725-1849-822-2895c-25-273-26-1087,0-1360
		c95-1025,344-1926,776-2810c561-1147,1358-2111,2376-2876C4405,736,5768,212,7270,68c206-20,295-23,715-23c490,0,648,8,990,51
		c1753,218,3378,1011,4631,2259c1359,1354,2172,3121,2320,5045c23,294,23,888,0,1180c-137,1767-822,3383-1995,4705
		c-148,167-479,498-646,646c-1287,1143-2897,1840-4580,1983C8323,15947,7998,15955,7650,15939z"/>
	<path class="st0" d="M8615,15575c623-53,1210-173,1786-366c1356-452,2546-1272,3475-2394c219-265,504-674,690-990
		c98-168,315-592,389-760c581-1332,772-2751,564-4185c-481-3314-3117-5945-6434-6420c-393-56-671-75-1095-75
		c-576,0-1065,50-1597,165C4721,909,3231,1816,2123,3147c-526,632-974,1409-1266,2193c-244,658-396,1348-452,2060
		c-26,329-26,842,0,1190c65,864,292,1741,662,2559c422,933,1075,1819,1848,2510c1326,1183,2957,1848,4745,1935
		C7825,15602,8444,15590,8615,15575z"/>
	<path d="M6888,12685c-334-63-602-323-669-649c-16-76-19-137-19-374c0-156-3-282-7-280c-5,2-30,15-58,29c-123,65-295,97-428,79
		c-100-14-228-56-304-101c-82-48-202-171-253-257c-56-95-95-214-110-332c-8-71-10-738-8-2590c4-2723,0-2534,59-2825
		c109-541,415-1075,828-1442c398-354,848-566,1381-650c163-26,666-25,900,0c759,84,1355,323,1906,767c205,165,373,332,813,810
		c1883,2042,1769,1917,1802,1975c101,173,97,398-9,560c-48,74-163,184-257,247c-382,253-848,291-1264,102c-120-55-255-153-411-298
		l-145-136l-5,1978l-5,1977l-22,75c-45,157-87,244-176,359c-97,125-275,239-442,282c-204,52-461,10-643-105c-47-30-47-30-57,49
		c-4,28-20,91-36,140c-93,290-328,519-614,596c-114,31-326,31-440,1c-160-44-331-144-429-252c-24-28-46-50-49-50s-36,32-74,71
		c-110,115-237,191-386,230C7160,12697,6987,12704,6888,12685z"/>
	<path class="st1" d="M7197,12326c124-39,243-153,298-287l30-74l5-1785c4-1372,8-1790,17-1806c21-37,81-83,118-90
		c79-15,156,23,193,96l22,44v1736c0,1888-3,1777,56,1899c37,76,151,189,231,230c322,162,685-20,767-386c14-65,16-243,16-1778
		c0-1410,2-1711,14-1738c18-44,78-95,121-103c74-14,151,21,189,86c21,35,21,45,26,1475c4,1012,8,1449,16,1470
		c87,237,299,374,536,344c199-25,368-191,413-407c12-57,15-379,15-2119V7081l-697-4c-764-4-746-3-973-68c-204-59-410-162-575-288
		c-118-90-274-248-298-300c-51-115,32-241,159-241c63,0,95,20,186,116c185,194,438,336,727,407c83,20,118,21,891,26
		c662,5,809,8,830,20c14,8,85,71,159,140c489,461,551,511,701,569c344,132,737,55,986-193c90-89,94-187,14-281
		c-35-39-364-397-1145-1244c-99-107-335-364-524-570c-391-426-627-666-784-795c-521-430-1026-642-1742-732c-106-13-218-17-455-18
		c-282,0-328,2-440,22c-229,40-415,101-625,203c-372,182-705,483-939,850c-68,106-178,337-221,459c-68,197-107,387-125,606
		c-6,75-10,1037-10,2545c0,2636-3,2497,55,2613c77,153,257,246,421,216c122-22,242-108,293-207c52-103,51-66,51-1334
		c0-1297-4-1216,63-1275c84-74,212-46,265,57l22,44v1751c0,1909-3,1807,56,1914c70,129,207,228,354,255
		C7006,12352,7144,12342,7197,12326z"/>
</g>
<image style="overflow:visible;" width="1599" height="1599" xlink:href="../../../Applications/Files/GitHub/TOP_Projects/rock-paper-scissors/assets/paper/paper-color.png"  transform="matrix(0.24 0 0 0.24 -590.6038 343.0717)">
</image>
</svg>
