<?xml version="1.0" encoding="utf-8"?>
<!-- Generator: Adobe Illustrator 24.1.0, SVG Export Plug-In . SVG Version: 6.00 Build 0)  -->
<svg version="1.1" id="Layer_1" xmlns="http://www.w3.org/2000/svg" xmlns:xlink="http://www.w3.org/1999/xlink" x="0px" y="0px"
	 viewBox="0 0 1599 1599" style="enable-background:new 0 0 1599 1599;" xml:space="preserve">
<style type="text/css">
	.st0{fill:#F1BAF5;}
	.st1{fill:#FFFFFF;}
</style>
<g transform="translate(0.000000,1599.000000) scale(0.100000,-0.100000)">
	<path d="M7570,15879c-1232-71-2376-398-3425-979c-1305-723-2380-1799-3108-3110c-553-997-887-2136-969-3305c-16-234-16-821,0-1050
		c108-1510,608-2901,1479-4113c386-537,887-1070,1408-1499c955-785,2104-1343,3310-1608C7283-9,8288-34,9322,140
		c969,163,1917,516,2763,1028c1415,858,2524,2128,3180,3642c565,1304,771,2778,584,4175c-270,2015-1264,3807-2829,5101
		c-1412,1168-3228,1813-5069,1803C7816,15888,7644,15884,7570,15879z"/>
	<path class="st0" d="M8520,15525c1182-86,2306-435,3300-1022c601-355,1076-728,1575-1235c1017-1031,1707-2312,2009-3728
		c115-540,159-974,160-1570c0-397-6-542-40-845c-217-1972-1194-3771-2739-5040C11250,824,9262,219,7269,405
		C4665,649,2366,2228,1191,4578C501,5958,255,7520,481,9085c11,77,38,232,60,345c412,2096,1700,3927,3541,5034
		c1031,619,2188,981,3403,1065C7696,15543,8298,15541,8520,15525z"/>
	<path d="M10375,13300c-359-57-660-327-746-669c-10-42-48-278-84-526c-36-247-112-772-170-1165c-57-393-121-831-142-972
		c-20-142-38-256-40-254c-3,2-8,32-13,67c-30,207-135,932-240,1649c-66,454-130,888-141,965c-29,210-63,311-146,440
		c-119,183-306,322-518,386c-97,29-309,37-420,16c-359-68-653-359-721-715c-27-143-20-231,81-945c51-369,133-949,180-1287
		s89-639,94-667c4-29,6-54,4-56s-40,5-86,15c-110,27-334,21-447-10c-204-57-387-180-511-344c-112-150-167-289-194-490
		c-3-27-8-48-11-48s-22,13-42,29c-108,86-289,154-457,172c-391,43-770-161-949-511c-48-94-80-184-95-274c-7-40-11-468-11-1270
		c0-1270,2-1326,46-1586c22-130,85-373,129-500c165-473,427-892,775-1240c511-512,1154-820,1859-890c132-13,463-13,589,0
		c614,65,1151,278,1627,647c568,440,972,1096,1119,1813c67,331,76,485,76,1320c0,1219,14,1382,266,3155c107,758,283,2022,354,2555
		c36,266,36,376,0,515c-82,321-341,577-662,655C10632,13304,10462,13313,10375,13300z"/>
	<path class="st1" d="M10689,12927c129-45,231-129,304-249c80-133,90-230,53-508c-29-216-96-700-157-1145c-22-159-98-702-169-1205
		c-254-1794-275-1993-296-2750l-6-226l-147,146c-154,154-282,250-440,329c-172,87-387,150-573,171c-56,6-337,10-663,10h-565v588
		c0,352-4,623-11,677c-12,106-60,255-111,345c-20,36-66,101-102,146l-65,81l-36,259c-20,142-113,804-206,1469
		c-151,1072-170,1221-166,1310c4,112,21,170,73,257c66,109,173,197,289,240c73,26,235,36,318,18c221-46,396-241,432-485
		c14-98,38-258,265-1820c61-418,138-944,171-1170c33-225,78-536,100-690s44-294,50-312c14-42,79-100,123-109c74-13,152,21,188,83
		c19,31,44,196,278,1808c57,396,124,852,271,1859c45,304,78,499,91,535c69,186,236,326,438,365C10479,12965,10619,12951,10689,12927
		z"/>
	<path class="st1" d="M7143,9250c262-38,469-227,522-477c12-55,15-184,15-670v-603h-527c-520,0-597-4-676-35c-17-7-18,20-15,646
		l3,654l23,65c37,102,80,169,156,245c101,99,209,154,351,175C7066,9261,7068,9261,7143,9250z"/>
	<path class="st1" d="M5628,8534c178-37,331-152,416-313c66-127,66-126,66-764c0-554-1-577-21-643c-92-302-393-488-694-430
		c-213,41-389,192-468,402c-22,58-22,66-25,646c-2,502-1,596,13,654c38,163,161,316,316,393C5369,8547,5485,8564,5628,8534z"/>
	<path class="st1" d="M9286,7135c427-74,796-346,988-731c57-115,90-210,118-337c19-88,22-131,22-312c-3-934-423-1764-1162-2292
		c-768-548-1804-660-2661-286c-322,140-578,317-847,587c-384,386-637,839-769,1380c-57,233-67,341-72,735l-5,363l48-37
		c66-49,211-119,309-147c69-20,103-23,250-23s180,3,249,23c161,46,318,137,425,246l54,54l55-91c72-120,134-198,233-291
		c138-130,290-220,472-281c153-51,252-65,463-65c101,0,184-3,184-6s-22-26-50-51c-27-24-78-79-113-121c-159-192-256-385-314-622
		c-24-99-26-123-30-433c-5-361-5-366,53-417c67-59,157-60,225-3c55,47,59,69,59,325c0,326,17,447,87,618c97,236,266,429,488,557
		c146,84,295,129,488,147c106,9,141,17,169,34c42,26,78,92,78,142c0,54-36,117-83,144l-42,25l-690,4c-735,4-728,4-875,55
		c-286,100-516,345-600,642c-13,47-23,118-27,190c-5,113-5,116,24,170c22,43,41,62,83,88l54,32h1287C9018,7150,9210,7148,9286,7135z
		"/>
</g>
</svg>
